# xmcd CD database file
#
# Track frame offsets:
#	150
#	30680
#	55397
#	72467
#	104090
#	127292
#	145712
#	158500
#	175557
#	195205
#	211832
#	222475
#	242012
#	258992
#	272885
#	291285
#
# Disc length: 3965 seconds
#
# Revision: 0
# Processed by: cddbd v1.5.1PL0 Copyright (c) Steve Scherf et al.
# Submitted via: CDex 1.51
#
DISCID=f70f7b10
DTITLE=Gudmundur Ingolfsson - Gudmundur Ingolfsson (Diskur 2)
DYEAR=1994
DGENRE=Jazz
TTITLE0=I fall in love too easily
TTITLE1=Bolivar blues
TTITLE2=Lullaby of the leaves
TTITLE3=La Fiesta
TTITLE4=You are the sunshine of my life
TTITLE5=The golden striker
TTITLE6=C jam blues
TTITLE7=On the street where you live
TTITLE8=Route 66
TTITLE9=Næturkyrrð
TTITLE10=Góða nótt
TTITLE11=Hvar ertu?
TTITLE12=Get me to church on time
TTITLE13=St. Thomas
TTITLE14=Yesterdays
TTITLE15=12th Street rag
EXTD=YEAR: 1994
EXTT0=
EXTT1=
EXTT2=
EXTT3=
EXTT4=
EXTT5=
EXTT6=
EXTT7=
EXTT8=
EXTT9=
EXTT10=
EXTT11=
EXTT12=
EXTT13=
EXTT14=
EXTT15=
PLAYORDER=
